<svg width="112" viewBox="0 0 98 28" fill="none"
     xmlns="http://www.w3.org/2000/svg">
  <path fill-rule="evenodd" clip-rule="evenodd"
        d="M8.03027 1.37819C8.03027 0.617035 8.64731 0 9.40846 0C10.1448 0 11.3261 0.31881 12.2689 1.13412C13.3157 2.03938 13.987 3.49097 13.6036 5.45973C13.3013 7.05046 12.3772 8.45508 11.0359 9.36233C10.4055 9.78878 9.54867 9.62339 9.12222 8.99292C8.69577 8.36245 8.86116 7.50565 9.49163 7.0792C10.2257 6.58267 10.7313 5.81371 10.8961 4.94295L10.8976 4.93506L10.8977 4.93506C11.0921 3.93997 10.7704 3.4823 10.4659 3.21904C10.2791 3.05751 10.0522 2.93553 9.82838 2.85503C9.71857 2.81553 9.61887 2.78944 9.53823 2.77385C9.49828 2.76612 9.46583 2.76152 9.44178 2.75896C9.41921 2.75655 9.40814 2.75639 9.40814 2.75637C9.40814 2.75637 9.40825 2.75637 9.40846 2.75637C8.64731 2.75637 8.03027 2.13934 8.03027 1.37819Z"
        fill="#C02F86"></path>
  <path
    d="M6.18389 14.2635C8.36866 14.2635 10.1398 12.4924 10.1398 10.3077C10.1398 8.12291 8.36866 6.35181 6.18389 6.35181C3.99913 6.35181 2.22803 8.12291 2.22803 10.3077C2.22803 12.4924 3.99913 14.2635 6.18389 14.2635Z"
    fill="url(#paint0_linear)"></path>
  <path fill-rule="evenodd" clip-rule="evenodd"
        d="M0.837891 10.3077C0.837891 7.35529 3.23127 4.96191 6.18366 4.96191C9.13604 4.96191 11.5294 7.35529 11.5294 10.3077C11.5294 13.2601 9.13604 15.6534 6.18366 15.6534C3.23127 15.6534 0.837891 13.2601 0.837891 10.3077ZM8.74983 10.3078C8.74983 8.89064 7.60101 7.74182 6.18386 7.74182C4.76672 7.74182 3.61789 8.89064 3.61789 10.3078C3.61789 11.7249 4.76672 12.8738 6.18386 12.8738C7.60101 12.8738 8.74983 11.7249 8.74983 10.3078Z"
        fill="#C02F86"></path>
  <path
    d="M13.7363 14.2359C15.4771 14.2359 16.8882 12.8247 16.8882 11.084C16.8882 9.34327 15.4771 7.93213 13.7363 7.93213C11.9956 7.93213 10.5845 9.34327 10.5845 11.084C10.5845 12.8247 11.9956 14.2359 13.7363 14.2359Z"
    fill="url(#paint1_linear)"></path>
  <path fill-rule="evenodd" clip-rule="evenodd"
        d="M9.19238 11.0839C9.19238 8.57441 11.2268 6.54004 13.7363 6.54004C14.9416 6.53947 16.0977 7.01802 16.9499 7.87029C17.8022 8.72256 18.2808 9.87865 18.2802 11.0839C18.2802 13.5935 16.2458 15.6278 13.7363 15.6278C11.2268 15.6278 9.19238 13.5935 9.19238 11.0839ZM15.3677 10.4076C15.094 9.74843 14.4501 9.31917 13.7363 9.32004C12.7634 9.32239 11.9756 10.1112 11.9744 11.0841C11.9744 11.7978 12.4044 12.4412 13.0639 12.7142C13.7233 12.9871 14.4823 12.8358 14.9866 12.3308C15.491 11.8258 15.6414 11.0667 15.3677 10.4076Z"
        fill="#C02F86"></path>
  <path
    d="M12.0367 22.0639C10.5385 22.0639 9.18794 21.1614 8.61483 19.7772C8.04171 18.393 8.35897 16.7999 9.41862 15.7408C10.4783 14.6818 12.0716 14.3655 13.4554 14.9394C14.8393 15.5133 15.7411 16.8644 15.7402 18.3625C15.7378 20.4066 14.0808 22.0628 12.0367 22.0639Z"
    fill="url(#paint2_linear)"></path>
  <path fill-rule="evenodd" clip-rule="evenodd"
        d="M6.94287 18.3627C6.94287 15.5497 9.22328 13.2693 12.0363 13.2693C13.3872 13.2693 14.6827 13.8059 15.6379 14.7611C16.5931 15.7163 17.1298 17.0119 17.1298 18.3627C17.1298 21.1758 14.8493 23.4562 12.0363 23.4562C9.22328 23.4562 6.94287 21.1758 6.94287 18.3627ZM14.3496 18.363C14.3496 17.0852 13.3137 16.0493 12.036 16.0493C10.7587 16.0505 9.72349 17.0857 9.72231 18.363C9.72231 19.6408 10.7582 20.6766 12.036 20.6766C13.3137 20.6766 14.3496 19.6408 14.3496 18.363Z"
        fill="#C02F86"></path>
  <path
    d="M4.27685 20.4326C5.87114 20.4326 7.16356 19.1402 7.16356 17.5459C7.16356 15.9516 5.87114 14.6592 4.27685 14.6592C2.68256 14.6592 1.39014 15.9516 1.39014 17.5459C1.39014 19.1402 2.68256 20.4326 4.27685 20.4326Z"
    fill="url(#paint3_linear)"></path>
  <path fill-rule="evenodd" clip-rule="evenodd"
        d="M0 17.5459C0 15.184 1.9147 13.2693 4.27661 13.2693C6.63852 13.2693 8.55322 15.184 8.55322 17.5459C8.55322 19.9078 6.63852 21.8225 4.27661 21.8225C1.9147 21.8225 0 19.9078 0 17.5459ZM5.77309 17.5461C5.77309 16.7195 5.10294 16.0493 4.27628 16.0493C3.44961 16.0493 2.77946 16.7195 2.77946 17.5461C2.77946 18.3728 3.44961 19.043 4.27628 19.043C5.10294 19.043 5.77309 18.3728 5.77309 17.5461Z"
        fill="#C02F86"></path>
  <path
    d="M7.14391 26.5034C6.05946 26.5043 5.08143 25.8514 4.66643 24.8495C4.25143 23.8476 4.48131 22.6943 5.24874 21.9281C6.01618 21.1619 7.16981 20.9338 8.17105 21.3504C9.17229 21.767 9.82366 22.7461 9.82107 23.8306C9.81636 25.3065 8.61982 26.5011 7.14391 26.5034Z"
    fill="url(#paint4_linear)"></path>
  <path fill-rule="evenodd" clip-rule="evenodd"
        d="M3.08105 23.824C3.08105 21.5802 4.90002 19.7612 7.14384 19.7612C8.22135 19.7612 9.25474 20.1893 10.0167 20.9512C10.7786 21.7131 11.2066 22.7465 11.2066 23.824C11.2066 26.0678 9.38765 27.8868 7.14384 27.8868C4.90002 27.8868 3.08105 26.0678 3.08105 23.824ZM8.42665 23.8241C8.42665 23.1156 7.85224 22.5412 7.14367 22.5412C6.43509 22.5412 5.86068 23.1156 5.86068 23.8241C5.86068 24.5327 6.43509 25.1071 7.14367 25.1071C7.85224 25.1071 8.42665 24.5327 8.42665 23.8241Z"
        fill="#C02F86"></path>
  <path fill-rule="evenodd" clip-rule="evenodd"
        d="M33.6785 12.3069C33.9089 12.1337 34.0437 11.8617 34.042 11.5734C34.0333 11.3261 33.9523 11.0867 33.8089 10.8849L32.9536 9.66607C32.774 9.39694 32.549 9.16107 32.2886 8.96898C32.0519 8.80646 31.78 8.7024 31.4953 8.66535C32.1618 8.53111 32.7616 8.17081 33.1931 7.64537C33.6027 7.11586 33.8158 6.46061 33.7961 5.79146C33.7961 4.83493 33.5017 4.10291 32.913 3.59542C32.3242 3.08793 31.4461 2.83418 30.2786 2.83418H26.8359C26.5218 2.81507 26.2133 2.92382 25.9806 3.13568C25.7697 3.36886 25.6618 3.67722 25.6812 3.99101V11.3211C25.6531 11.6592 25.7751 11.9926 26.0147 12.2327C26.2544 12.4728 26.5876 12.5953 26.9257 12.5678C27.2602 12.5868 27.5874 12.465 27.8281 12.232C28.057 11.9857 28.1759 11.6569 28.1574 11.3211V8.86421H29.0469C29.222 8.85946 29.3948 8.9047 29.5451 8.99464C29.7063 9.09909 29.844 9.236 29.9493 9.39665L31.7284 11.9968C31.8527 12.1867 32.0225 12.3426 32.2223 12.4501C32.6936 12.6931 33.2636 12.6371 33.6785 12.3069ZM31.442 5.85987C31.4737 6.18817 31.3368 6.51013 31.0785 6.7152C30.8369 6.8884 30.4392 6.97607 29.8811 6.96965H28.1298V4.72443H29.8811C30.437 4.72443 30.8369 4.81424 31.0785 4.99172C31.3358 5.20321 31.4718 5.52819 31.442 5.85987Z"
        fill="#C02F86"></path>
  <path
    d="M35.6561 12.1766C35.4447 11.9437 35.336 11.6354 35.3546 11.3213V3.9912C35.3358 3.67712 35.4445 3.36871 35.6561 3.13588C35.8888 2.92402 36.1973 2.81527 36.5115 2.83438H41.2478C41.564 2.81239 41.8781 2.89998 42.1373 3.08242C42.3441 3.25818 42.4552 3.52161 42.4367 3.79234C42.4367 4.45094 42.0411 4.7781 41.2478 4.7781H37.8051V6.61704H40.9805C41.7745 6.61704 42.1708 6.94064 42.1694 7.58783C42.1859 7.85884 42.0752 8.12205 41.8701 8.29989C41.61 8.48007 41.296 8.56538 40.9805 8.54152H37.8051V10.5408H41.2542C42.0468 10.5408 42.4431 10.8687 42.4431 11.5245C42.4599 11.7955 42.3492 12.0589 42.1438 12.2365C41.8843 12.4182 41.5702 12.505 41.2542 12.4824H36.5179C36.2009 12.5024 35.8896 12.3919 35.6561 12.1766Z"
    fill="#C02F86"></path>
  <path
    d="M43.8351 12.1766C43.6201 11.9372 43.5113 11.6209 43.5336 11.2999V3.99113C43.518 3.65908 43.6393 3.33518 43.8693 3.09518C44.1128 2.86892 44.4376 2.7509 44.7696 2.76802C45.1127 2.75055 45.4486 2.87149 45.7019 3.10373C45.9341 3.3426 46.0571 3.66689 46.0419 3.99968V10.4381H49.1809C49.9763 10.4381 50.3719 10.7802 50.3719 11.4645C50.3954 11.7509 50.2877 12.0325 50.079 12.23C49.8172 12.4138 49.4997 12.5007 49.1809 12.4759H44.6904C44.3766 12.4959 44.068 12.3879 43.8351 12.1766Z"
    fill="#C02F86"></path>
  <path
    d="M51.653 12.1766C51.4431 11.9428 51.3354 11.6349 51.3536 11.3213V3.9912C51.3351 3.67755 51.4429 3.36955 51.653 3.13588C51.8859 2.92444 52.1942 2.81576 52.5083 2.83438H57.2425C57.5587 2.81239 57.8728 2.89998 58.132 3.08242C58.3396 3.25775 58.4515 3.52125 58.4335 3.79234C58.4335 4.45094 58.0358 4.7781 57.2425 4.7781H53.802V6.61704H56.9773C57.7671 6.61704 58.162 6.93708 58.162 7.57714C58.1786 7.84862 58.067 8.11218 57.8605 8.2892C57.6036 8.47173 57.2919 8.56078 56.9773 8.54152H53.802V10.5408H57.251C58.0436 10.5408 58.4407 10.8687 58.4421 11.5245C58.4607 11.7963 58.3488 12.0607 58.1406 12.2365C57.8811 12.4182 57.567 12.505 57.251 12.4824H52.5168C52.1993 12.5022 51.8873 12.3918 51.653 12.1766Z"
    fill="#C02F86"></path>
  <path
    d="M66.9801 2.9242C67.1622 2.81502 67.3708 2.75806 67.5831 2.75955C67.9074 2.75873 68.2218 2.8706 68.4727 3.07602C68.7249 3.26107 68.8722 3.55653 68.8682 3.86933C68.8656 4.03632 68.8238 4.20036 68.7464 4.34831L65.1326 11.8067C65.0203 12.0477 64.8337 12.2463 64.6002 12.3734C64.1236 12.6387 63.5436 12.6387 63.067 12.3734C62.8334 12.2457 62.6463 12.0474 62.5324 11.8067L58.9208 4.34831C58.8458 4.19993 58.8076 4.03561 58.8096 3.86933C58.8144 3.5543 58.9713 3.26105 59.2309 3.08243C59.4891 2.87853 59.8085 2.76777 60.1375 2.7681C60.3518 2.76685 60.5624 2.82376 60.747 2.93275C60.9376 3.04874 61.0871 3.22146 61.1746 3.4267L63.8689 9.25572L66.5567 3.4096C66.6446 3.20812 66.7924 3.03863 66.9801 2.9242Z"
    fill="#C02F86"></path>
  <path fill-rule="evenodd" clip-rule="evenodd"
        d="M77.8131 12.2046C78.0442 12.0169 78.1778 11.7346 78.1766 11.4369C78.1718 11.2606 78.128 11.0875 78.0483 10.9301L74.4303 3.51236C74.3174 3.2718 74.1309 3.07336 73.8978 2.94571C73.6635 2.81399 73.399 2.74546 73.1302 2.74685C72.8656 2.74681 72.6056 2.81532 72.3754 2.94571C72.1451 3.07566 71.9607 3.27357 71.8472 3.51236L68.227 10.9301C68.1478 11.0875 68.1054 11.2608 68.103 11.4369C68.103 11.7372 68.2419 12.0207 68.4794 12.2046C68.7131 12.4076 69.0123 12.5192 69.3219 12.5189C69.7579 12.5235 70.153 12.2629 70.3205 11.8603L70.9491 10.479H75.3775L75.9934 11.8603C76.0783 12.062 76.2212 12.2339 76.4039 12.3543C76.5761 12.4628 76.7756 12.5199 76.9791 12.5189C77.2867 12.5223 77.5843 12.4101 77.8131 12.2046ZM73.1665 5.54776L74.535 8.59057H71.798L73.1665 5.54776Z"
        fill="#C02F86"></path>
  <path
    d="M87.5018 3.10162C87.7297 3.34033 87.8509 3.66138 87.8375 3.99116V11.3213C87.853 11.6547 87.7344 11.9804 87.5082 12.2258C87.2855 12.4574 86.9739 12.582 86.6529 12.5679C86.2943 12.5913 85.947 12.438 85.7227 12.1573L81.5701 6.96126V11.3213C81.5838 11.6491 81.4713 11.9698 81.2558 12.2172C81.0352 12.452 80.7221 12.5772 80.4005 12.5594C80.0794 12.5735 79.7678 12.4488 79.5451 12.2172C79.3257 11.9719 79.212 11.65 79.2287 11.3213V3.99116C79.215 3.66254 79.3336 3.34215 79.558 3.10162C79.7813 2.87093 80.0925 2.74647 80.4133 2.75949C80.7663 2.74315 81.106 2.89555 81.3285 3.17005L85.4896 8.34475V3.99116C85.4739 3.66184 85.5892 3.33969 85.8104 3.09521C86.0314 2.87461 86.3344 2.75606 86.6464 2.76805C86.9654 2.75599 87.2752 2.87678 87.5018 3.10162Z"
    fill="#C02F86"></path>
  <path
    d="M92.1139 12.2109C91.8763 11.9742 91.7497 11.648 91.7654 11.3128V4.86799H89.8409C89.5218 4.8932 89.2041 4.80373 88.945 4.61567C88.7319 4.41523 88.621 4.12904 88.6435 3.83733C88.6192 3.55041 88.728 3.26822 88.9386 3.07182C89.1992 2.88729 89.5161 2.79956 89.8345 2.82377H96.2387C96.5578 2.79959 96.8754 2.8873 97.1368 3.07182C97.3458 3.26917 97.4536 3.55089 97.4298 3.83733C97.4522 4.12609 97.3448 4.40984 97.1368 4.6114C96.8769 4.79944 96.5586 4.88887 96.2387 4.86372H94.3143V11.3214C94.33 11.6565 94.2034 11.9827 93.9657 12.2195C93.4302 12.6644 92.6537 12.6644 92.1182 12.2195L92.1139 12.2109Z"
    fill="#C02F86"></path>
  <path
    d="M26.0233 27.613C25.7899 27.3713 25.6662 27.0442 25.6812 26.7085V19.3869C25.6446 19.069 25.7551 18.7517 25.9812 18.5252C26.2072 18.2987 26.5243 18.1877 26.8423 18.2237H31.4332C31.7526 18.198 32.0711 18.2825 32.3356 18.4632C32.5485 18.66 32.6582 18.9442 32.6328 19.233C32.6576 19.5119 32.548 19.7858 32.3378 19.9707C32.07 20.1449 31.7514 20.2239 31.4332 20.1952H28.1574V21.9743H31.1681C31.4906 21.9488 31.8118 22.0381 32.0747 22.2266C32.2832 22.419 32.392 22.6964 32.3698 22.9793C32.3953 23.2601 32.2857 23.5364 32.0747 23.7234C31.8099 23.8977 31.495 23.9796 31.1788 23.9565H28.1574V26.7171C28.1759 27.054 28.0544 27.3837 27.8216 27.628C27.3074 28.0799 26.5376 28.0799 26.0233 27.628V27.613Z"
    fill="#C02F86"></path>
  <path fill-rule="evenodd" clip-rule="evenodd"
        d="M41.5882 27.7028C41.8185 27.5296 41.9534 27.2576 41.9517 26.9694C41.943 26.722 41.8619 26.4826 41.7186 26.2808L40.8633 25.062C40.6845 24.7929 40.4602 24.557 40.2004 24.3649C39.9614 24.1995 39.6866 24.0933 39.3985 24.0549C40.0642 23.92 40.6631 23.5598 41.0942 23.0349C41.5038 22.5054 41.7169 21.8501 41.6972 21.181C41.7029 20.2245 41.4114 19.4924 40.8227 18.9849C40.2339 18.4775 39.3558 18.2237 38.1883 18.2237H34.7541C34.4358 18.187 34.1181 18.2977 33.8915 18.5243C33.6649 18.7509 33.5542 19.0686 33.5909 19.387V26.7171C33.5628 27.0552 33.6847 27.3885 33.9244 27.6286C34.1641 27.8687 34.4973 27.9913 34.8354 27.9637C35.1699 27.9827 35.497 27.861 35.7378 27.628C35.9667 27.3817 36.0856 27.0528 36.0671 26.7171V24.2602H36.9566C37.1323 24.2557 37.3058 24.3009 37.457 24.3906C37.6175 24.4952 37.7544 24.6321 37.859 24.7926L39.638 27.3928C39.7623 27.5827 39.9321 27.7385 40.132 27.8461C40.6033 28.0891 41.1733 28.033 41.5882 27.7028ZM39.351 21.256C39.3826 21.5843 39.2458 21.9063 38.9875 22.1113C38.7458 22.2845 38.3481 22.3722 37.79 22.3658H36.0387V20.1206H37.79C38.346 20.1206 38.7458 20.2104 38.9875 20.3879C39.2447 20.5993 39.3808 20.9243 39.351 21.256Z"
        fill="#C02F86"></path>
  <path
    d="M44.2972 26.9309C43.573 26.2181 43.2109 25.1782 43.2109 23.8111V19.3869C43.2109 18.7067 43.7624 18.1553 44.4426 18.1553C45.1228 18.1553 45.6743 18.7067 45.6743 19.3869V23.903C45.6743 24.598 45.8282 25.1304 46.1383 25.5046C46.492 25.8644 46.9755 26.0671 47.4801 26.0671C47.9846 26.0671 48.4681 25.8644 48.8219 25.5046C49.1319 25.1304 49.2859 24.598 49.2859 23.903V19.3869C49.2654 19.0552 49.3889 18.7307 49.6247 18.4965C49.8606 18.2623 50.1859 18.141 50.5175 18.1638C50.8519 18.1496 51.1779 18.2706 51.422 18.4995C51.6548 18.7382 51.7786 19.0624 51.7642 19.3955V23.809C51.7642 25.1661 51.3971 26.2039 50.6629 26.9223C49.9288 27.6408 48.8646 28 47.4704 28C46.082 28 45.0242 27.6437 44.2972 26.9309Z"
    fill="#C02F86"></path>
  <path
    d="M53.7953 27.6196C53.5639 27.3777 53.4418 27.0516 53.4574 26.7173V19.3871C53.4418 19.0551 53.5631 18.7312 53.7931 18.4912C54.0402 18.2623 54.37 18.1441 54.7062 18.164C55.0486 18.1471 55.3836 18.268 55.6363 18.4997C55.8691 18.7384 55.9929 19.0626 55.9785 19.3957V26.7173C55.9958 27.0552 55.8719 27.3852 55.6363 27.6282C55.3844 27.8611 55.0488 27.9822 54.7062 27.9639C54.3681 27.9796 54.0384 27.8551 53.7953 27.6196Z"
    fill="#C02F86"></path>
  <path
    d="M60.2555 27.6069C60.0179 27.3702 59.8913 27.044 59.907 26.7088V20.264H57.9825C57.6634 20.2892 57.3457 20.1997 57.0866 20.0117C56.8735 19.8112 56.7626 19.525 56.7851 19.2333C56.7608 18.9464 56.8696 18.6642 57.0802 18.4678C57.3408 18.2833 57.6577 18.1956 57.9761 18.2198H64.3803C64.6994 18.1956 65.017 18.2833 65.2784 18.4678C65.4874 18.6652 65.5952 18.9469 65.5714 19.2333C65.5938 19.5221 65.4864 19.8058 65.2784 20.0074C65.0185 20.1954 64.7002 20.2849 64.3803 20.2597H62.4559V26.7174C62.4716 27.0525 62.345 27.3787 62.1073 27.6155C61.5718 28.0604 60.7953 28.0604 60.2598 27.6155L60.2555 27.6069Z"
    fill="#C02F86"></path>
  <defs>
    <linearGradient id="paint0_linear" x1="11.7745" y1="10.3066" x2="6.18282"
                    y2="4.71493" gradientUnits="userSpaceOnUse">
      <stop stop-color="#F281B3"></stop>
      <stop offset="1" stop-color="#EA3694"></stop>
    </linearGradient>
    <linearGradient id="paint1_linear" x1="18.1926" y1="11.084" x2="13.7363"
                    y2="6.62776" gradientUnits="userSpaceOnUse">
      <stop stop-color="#F281B3"></stop>
      <stop offset="1" stop-color="#EA3694"></stop>
    </linearGradient>
    <linearGradient id="paint2_linear" x1="17.2712" y1="18.3625" x2="12.0367"
                    y2="13.128" gradientUnits="userSpaceOnUse">
      <stop stop-color="#F281B3"></stop>
      <stop offset="1" stop-color="#EA3694"></stop>
    </linearGradient>
    <linearGradient id="paint3_linear" x1="8.35674" y1="17.5459" x2="4.27685"
                    y2="13.466" gradientUnits="userSpaceOnUse">
      <stop stop-color="#F281B3"></stop>
      <stop offset="1" stop-color="#EA3694"></stop>
    </linearGradient>
    <linearGradient id="paint4_linear" x1="10.9287" y1="23.8295" x2="7.14177"
                    y2="20.0447" gradientUnits="userSpaceOnUse">
      <stop stop-color="#F281B3"></stop>
      <stop offset="1" stop-color="#EA3694"></stop>
    </linearGradient>
  </defs>
</svg>
